<svg width="48" height="48" viewBox="0 0 48 48" fill="none" xmlns="http://www.w3.org/2000/svg">
<rect x="0.5" y="0.5" width="47" height="47" rx="7.5" stroke="url(#paint0_linear_2448_329)" stroke-opacity="0.7"/>
<path d="M32.1335 15.9924C30.5271 15.2564 28.8051 14.7125 27.0044 14.4032C26.9884 14.4 26.9718 14.4021 26.9569 14.4089C26.9421 14.4158 26.9297 14.4272 26.9215 14.4416C26.701 14.8351 26.4553 15.3482 26.2831 15.7535C24.3733 15.4636 22.4317 15.4636 20.5219 15.7535C20.3301 15.3043 20.1138 14.8663 19.8741 14.4416C19.8659 14.427 19.8537 14.4154 19.8388 14.4081C19.824 14.4009 19.8074 14.3984 19.7911 14.401C17.9915 14.7104 16.2695 15.2543 14.662 15.9913C14.6482 15.9972 14.6365 16.0073 14.6284 16.0201C11.3609 20.8998 10.4653 25.659 10.9052 30.3584C10.9065 30.3699 10.91 30.381 10.9156 30.3911C10.9212 30.4012 10.9287 30.41 10.9378 30.4171C12.8449 31.8275 14.9721 32.902 17.2303 33.5955C17.246 33.6004 17.2628 33.6004 17.2786 33.5955C17.2943 33.5905 17.3082 33.5809 17.3184 33.5678C17.8044 32.9076 18.235 32.2073 18.6057 31.474C18.6109 31.464 18.6138 31.453 18.6144 31.4417C18.615 31.4304 18.6132 31.4191 18.6091 31.4086C18.605 31.3981 18.5988 31.3886 18.5907 31.3807C18.5827 31.3729 18.5732 31.3669 18.5627 31.3631C17.8844 31.1036 17.2272 30.7905 16.5971 30.4267C16.5858 30.4201 16.5763 30.4108 16.5694 30.3995C16.5625 30.3883 16.5584 30.3755 16.5576 30.3623C16.5567 30.3491 16.5591 30.3359 16.5646 30.3238C16.57 30.3118 16.5783 30.3013 16.5887 30.2933C16.721 30.1941 16.8533 30.0907 16.9793 29.9872C16.9906 29.9779 17.0043 29.972 17.0188 29.9701C17.0332 29.9682 17.0479 29.9705 17.0612 29.9765C21.1844 31.858 25.65 31.858 29.7249 29.9765C29.7382 29.9701 29.7531 29.9676 29.7677 29.9693C29.7824 29.971 29.7963 29.9768 29.8078 29.9861C29.9338 30.0907 30.0651 30.1941 30.1984 30.2933C30.2089 30.3011 30.2174 30.3115 30.223 30.3234C30.2286 30.3353 30.2312 30.3485 30.2306 30.3617C30.2299 30.3749 30.2261 30.3878 30.2194 30.3991C30.2127 30.4104 30.2033 30.4199 30.1921 30.4267C29.5642 30.7936 28.9112 31.1039 28.2255 31.3621C28.215 31.3659 28.2054 31.3721 28.1974 31.38C28.1894 31.388 28.1831 31.3976 28.1791 31.4082C28.175 31.4188 28.1732 31.4301 28.1738 31.4415C28.1744 31.4528 28.1773 31.4639 28.1825 31.474C28.5605 32.2068 28.9931 32.9044 29.4687 33.5667C29.4786 33.5803 29.4924 33.5905 29.5081 33.5958C29.5239 33.6012 29.541 33.6014 29.5569 33.5966C31.8189 32.905 33.9496 31.8301 35.8588 30.4171C35.8681 30.4104 35.8759 30.4019 35.8817 30.3919C35.8875 30.382 35.8912 30.3709 35.8924 30.3595C36.4174 24.9262 35.0125 20.2055 32.1661 16.0223C32.1591 16.0087 32.1475 15.9981 32.1335 15.9924ZM19.222 27.4967C17.981 27.4967 16.9573 26.3565 16.9573 24.9582C16.9573 23.5588 17.961 22.4197 19.222 22.4197C20.4925 22.4197 21.5068 23.5684 21.4868 24.9582C21.4868 26.3576 20.4831 27.4967 19.222 27.4967V27.4967ZM27.5956 27.4967C26.3534 27.4967 25.3308 26.3565 25.3308 24.9582C25.3308 23.5588 26.3335 22.4197 27.5956 22.4197C28.866 22.4197 29.8803 23.5684 29.8603 24.9582C29.8603 26.3576 28.8671 27.4967 27.5956 27.4967V27.4967Z" fill="url(#paint1_linear_2448_329)"/>
<defs>
<linearGradient id="paint0_linear_2448_329" x1="5.28" y1="4.51834" x2="32.5742" y2="56.154" gradientUnits="userSpaceOnUse">
<stop stop-color="#FFF72A"/>
<stop offset="1" stop-color="#FFB401"/>
</linearGradient>
<linearGradient id="paint1_linear_2448_329" x1="36.0008" y1="23.9503" x2="10.8008" y2="23.9503" gradientUnits="userSpaceOnUse">
<stop stop-color="#FFB401"/>
<stop offset="1" stop-color="#DAD31B"/>
</linearGradient>
</defs>
</svg>
