<svg width="48" height="48" viewBox="0 0 48 48" fill="none" xmlns="http://www.w3.org/2000/svg">
<rect x="0.5" y="0.5" width="47" height="47" rx="7.5" stroke="url(#paint0_linear_1584_223)" stroke-opacity="0.7"/>
<path d="M32.1335 15.9923C30.5271 15.2563 28.8051 14.7124 27.0044 14.403C26.9884 14.3999 26.9718 14.4019 26.9569 14.4088C26.9421 14.4157 26.9297 14.4271 26.9215 14.4414C26.701 14.835 26.4553 15.3481 26.2831 15.7534C24.3733 15.4635 22.4317 15.4635 20.5219 15.7534C20.3301 15.3042 20.1138 14.8662 19.8741 14.4414C19.8659 14.4269 19.8537 14.4153 19.8388 14.408C19.824 14.4008 19.8074 14.3983 19.7911 14.4009C17.9915 14.7102 16.2695 15.2542 14.662 15.9912C14.6482 15.9971 14.6365 16.0072 14.6284 16.02C11.3609 20.8997 10.4653 25.6588 10.9052 30.3583C10.9065 30.3698 10.91 30.3809 10.9156 30.391C10.9212 30.4011 10.9287 30.4099 10.9378 30.4169C12.8449 31.8274 14.9721 32.9019 17.2303 33.5954C17.246 33.6003 17.2628 33.6003 17.2786 33.5954C17.2943 33.5904 17.3082 33.5808 17.3184 33.5677C17.8044 32.9075 18.235 32.2071 18.6057 31.4739C18.6109 31.4639 18.6138 31.4529 18.6144 31.4416C18.615 31.4303 18.6132 31.419 18.6091 31.4085C18.605 31.398 18.5988 31.3885 18.5907 31.3806C18.5827 31.3728 18.5732 31.3668 18.5627 31.363C17.8844 31.1035 17.2272 30.7904 16.5971 30.4265C16.5858 30.42 16.5763 30.4106 16.5694 30.3994C16.5625 30.3882 16.5584 30.3754 16.5576 30.3622C16.5567 30.349 16.5591 30.3357 16.5646 30.3237C16.57 30.3117 16.5783 30.3012 16.5887 30.2932C16.721 30.194 16.8533 30.0906 16.9793 29.9871C16.9906 29.9778 17.0043 29.9719 17.0188 29.97C17.0332 29.9681 17.0479 29.9703 17.0612 29.9764C21.1844 31.8579 25.65 31.8579 29.7249 29.9764C29.7382 29.97 29.7531 29.9674 29.7677 29.9691C29.7824 29.9708 29.7963 29.9767 29.8078 29.986C29.9338 30.0906 30.0651 30.194 30.1984 30.2932C30.2089 30.301 30.2174 30.3114 30.223 30.3233C30.2286 30.3352 30.2312 30.3484 30.2306 30.3616C30.2299 30.3748 30.2261 30.3876 30.2194 30.399C30.2127 30.4103 30.2033 30.4198 30.1921 30.4265C29.5642 30.7934 28.9112 31.1038 28.2255 31.3619C28.215 31.3658 28.2054 31.3719 28.1974 31.3799C28.1894 31.3878 28.1831 31.3974 28.1791 31.408C28.175 31.4186 28.1732 31.43 28.1738 31.4414C28.1744 31.4527 28.1773 31.4638 28.1825 31.4739C28.5605 32.2067 28.9931 32.9042 29.4687 33.5666C29.4786 33.5802 29.4924 33.5903 29.5081 33.5957C29.5239 33.601 29.541 33.6013 29.5569 33.5965C31.8189 32.9049 33.9496 31.8299 35.8588 30.4169C35.8681 30.4103 35.8759 30.4018 35.8817 30.3918C35.8875 30.3819 35.8912 30.3708 35.8924 30.3593C36.4174 24.9261 35.0125 20.2053 32.1661 16.0221C32.1591 16.0085 32.1475 15.998 32.1335 15.9923ZM19.222 27.4966C17.981 27.4966 16.9573 26.3564 16.9573 24.9581C16.9573 23.5587 17.961 22.4196 19.222 22.4196C20.4925 22.4196 21.5068 23.5683 21.4868 24.9581C21.4868 26.3575 20.4831 27.4966 19.222 27.4966ZM27.5956 27.4966C26.3534 27.4966 25.3308 26.3564 25.3308 24.9581C25.3308 23.5587 26.3335 22.4196 27.5956 22.4196C28.866 22.4196 29.8803 23.5683 29.8603 24.9581C29.8603 26.3575 28.8671 27.4966 27.5956 27.4966Z" fill="url(#paint1_linear_1584_223)"/>
<defs>
<linearGradient id="paint0_linear_1584_223" x1="5.28" y1="4.51834" x2="32.5742" y2="56.154" gradientUnits="userSpaceOnUse">
<stop stop-color="#FFF72A"/>
<stop offset="1" stop-color="#FFB401"/>
</linearGradient>
<linearGradient id="paint1_linear_1584_223" x1="36.0008" y1="23.9502" x2="10.8008" y2="23.9502" gradientUnits="userSpaceOnUse">
<stop stop-color="#FFB401"/>
<stop offset="1" stop-color="#DAD31B"/>
</linearGradient>
</defs>
</svg>
