<svg width="48" height="48" viewBox="0 0 48 48" fill="none" xmlns="http://www.w3.org/2000/svg">
<rect x="0.5" y="0.5" width="47" height="47" rx="7.5" stroke="url(#paint0_linear_2448_310)" stroke-opacity="0.7"/>
<path d="M27.7691 16.087H30.4614C30.7586 16.087 30.9999 15.8337 30.9999 15.5217V11.7139C30.9999 11.4177 30.7829 11.1713 30.5018 11.1503C29.6451 11.0865 27.9716 11 26.7681 11C23.4615 11 21.3076 13.08 21.3076 16.8602V20.6087H17.5385C17.2412 20.6087 17 20.8619 17 21.1739V25.1304C17 25.4424 17.2412 25.6957 17.5385 25.6957H21.3076V36.4348C21.3076 36.7468 21.5489 37 21.8461 37H25.6153C25.9125 37 26.1538 36.7468 26.1538 36.4348V25.6957H30.0425C30.3171 25.6957 30.5476 25.4792 30.5777 25.1926L30.9966 21.2361C31.0322 20.9015 30.7823 20.6087 30.4614 20.6087H26.1538V17.7826C26.1538 16.846 26.8769 16.087 27.7691 16.087Z" fill="url(#paint1_linear_2448_310)"/>
<defs>
<linearGradient id="paint0_linear_2448_310" x1="5.28" y1="4.51834" x2="32.5742" y2="56.154" gradientUnits="userSpaceOnUse">
<stop stop-color="#FFF72A"/>
<stop offset="1" stop-color="#FFB401"/>
</linearGradient>
<linearGradient id="paint1_linear_2448_310" x1="31" y1="23.9326" x2="17" y2="23.9326" gradientUnits="userSpaceOnUse">
<stop stop-color="#FFB401"/>
<stop offset="1" stop-color="#DAD31B"/>
</linearGradient>
</defs>
</svg>
