<svg width="48" height="48" viewBox="0 0 48 48" fill="none" xmlns="http://www.w3.org/2000/svg">
<rect x="0.5" y="0.5" width="47" height="47" rx="7.5" stroke="url(#paint0_linear_2448_320)" stroke-opacity="0.7"/>
<path fill-rule="evenodd" clip-rule="evenodd" d="M19.5467 13.2648C20.6983 13.2118 21.0655 13.2 23.9992 13.2C26.9329 13.2 27.3001 13.2128 28.4508 13.2648C29.6015 13.3168 30.3869 13.5004 31.0742 13.7665C31.7939 14.0385 32.4468 14.4636 32.9868 15.0134C33.5366 15.5524 33.9607 16.2044 34.2317 16.925C34.4988 17.6123 34.6814 18.3978 34.7344 19.5465C34.7874 20.7001 34.7992 21.0673 34.7992 24C34.7992 26.9337 34.7865 27.3009 34.7344 28.4526C34.6824 29.6013 34.4988 30.3867 34.2317 31.074C33.9607 31.7948 33.5359 32.4478 32.9868 32.9876C32.4468 33.5374 31.7939 33.9615 31.0742 34.2325C30.3869 34.4996 29.6015 34.6822 28.4527 34.7352C27.3001 34.7882 26.9329 34.8 23.9992 34.8C21.0655 34.8 20.6983 34.7872 19.5467 34.7352C18.3979 34.6832 17.6125 34.4996 16.9252 34.2325C16.2045 33.9615 15.5515 33.5367 15.0117 32.9876C14.4622 32.4482 14.037 31.7955 13.7657 31.075C13.4997 30.3877 13.317 29.6023 13.264 28.4535C13.211 27.2999 13.1992 26.9327 13.1992 24C13.1992 21.0663 13.212 20.6991 13.264 19.5484C13.3161 18.3978 13.4997 17.6123 13.7657 16.925C14.0374 16.2045 14.4629 15.5518 15.0126 15.0124C15.5517 14.4631 16.204 14.0379 16.9242 13.7665C17.6115 13.5004 18.397 13.3178 19.5457 13.2648H19.5467ZM28.3634 15.2088C27.2245 15.1568 26.8828 15.146 23.9992 15.146C21.1156 15.146 20.7739 15.1568 19.635 15.2088C18.5815 15.2569 18.0101 15.4327 17.6292 15.5809C17.1255 15.7773 16.7652 16.01 16.3872 16.388C16.0289 16.7366 15.7531 17.1609 15.5801 17.63C15.4319 18.0109 15.2561 18.5823 15.208 19.6358C15.156 20.7747 15.1452 21.1164 15.1452 24C15.1452 26.8836 15.156 27.2253 15.208 28.3642C15.2561 29.4177 15.4319 29.9891 15.5801 30.37C15.7529 30.8384 16.0288 31.2635 16.3872 31.612C16.7357 31.9704 17.1609 32.2463 17.6292 32.4191C18.0101 32.5674 18.5815 32.7431 19.635 32.7912C20.7739 32.8432 21.1146 32.854 23.9992 32.854C26.8838 32.854 27.2245 32.8432 28.3634 32.7912C29.4169 32.7431 29.9883 32.5674 30.3693 32.4191C30.8729 32.2227 31.2333 31.99 31.6113 31.612C31.9696 31.2635 32.2455 30.8384 32.4183 30.37C32.5666 29.9891 32.7423 29.4177 32.7904 28.3642C32.8425 27.2253 32.8533 26.8836 32.8533 24C32.8533 21.1164 32.8425 20.7747 32.7904 19.6358C32.7423 18.5823 32.5666 18.0109 32.4183 17.63C32.2219 17.1263 31.9893 16.766 31.6113 16.388C31.2626 16.0297 30.8383 15.7539 30.3693 15.5809C29.9883 15.4327 29.4169 15.2569 28.3634 15.2088V15.2088ZM22.6198 27.3294C23.3902 27.6501 24.248 27.6933 25.0467 27.4518C25.8455 27.2103 26.5356 26.6989 26.9993 26.0051C27.4629 25.3113 27.6713 24.478 27.5888 23.6476C27.5063 22.8173 27.1381 22.0413 26.547 21.4522C26.1703 21.0756 25.7147 20.7873 25.2131 20.608C24.7115 20.4286 24.1764 20.3627 23.6463 20.415C23.1161 20.4673 22.6042 20.6365 22.1473 20.9104C21.6904 21.1842 21.2999 21.556 21.004 21.9989C20.708 22.4418 20.5139 22.9448 20.4357 23.4718C20.3575 23.9987 20.3971 24.5364 20.5516 25.0462C20.7061 25.5559 20.9718 26.0251 21.3294 26.4199C21.687 26.8147 22.1277 27.1253 22.6198 27.3294ZM20.0739 20.0747C20.5894 19.5592 21.2014 19.1503 21.8749 18.8713C22.5484 18.5924 23.2702 18.4488 23.9992 18.4488C24.7282 18.4488 25.4501 18.5924 26.1236 18.8713C26.7971 19.1503 27.409 19.5592 27.9245 20.0747C28.44 20.5902 28.8489 21.2021 29.1279 21.8757C29.4069 22.5492 29.5504 23.271 29.5504 24C29.5504 24.729 29.4069 25.4509 29.1279 26.1244C28.8489 26.7979 28.44 27.4098 27.9245 27.9253C26.8835 28.9664 25.4715 29.5512 23.9992 29.5512C22.5269 29.5512 21.115 28.9664 20.0739 27.9253C19.0329 26.8843 18.448 25.4723 18.448 24C18.448 22.5277 19.0329 21.1158 20.0739 20.0747V20.0747ZM30.7816 19.2755C30.9094 19.155 31.0116 19.0101 31.0824 18.8494C31.1531 18.6886 31.1909 18.5153 31.1934 18.3398C31.196 18.1642 31.1633 17.9899 31.0973 17.8271C31.0312 17.6644 30.9332 17.5166 30.8091 17.3924C30.6849 17.2682 30.5371 17.1702 30.3744 17.1042C30.2116 17.0382 30.0373 17.0055 29.8617 17.0081C29.6861 17.0106 29.5128 17.0484 29.3521 17.1191C29.1914 17.1899 29.0465 17.2921 28.926 17.4199C28.6916 17.6683 28.5633 17.9983 28.5683 18.3398C28.5733 18.6812 28.7112 19.0073 28.9526 19.2488C29.1941 19.4903 29.5202 19.6282 29.8617 19.6332C30.2032 19.6382 30.5332 19.5099 30.7816 19.2755V19.2755Z" fill="url(#paint1_linear_2448_320)"/>
<defs>
<linearGradient id="paint0_linear_2448_320" x1="5.28" y1="4.51834" x2="32.5742" y2="56.154" gradientUnits="userSpaceOnUse">
<stop stop-color="#FFF72A"/>
<stop offset="1" stop-color="#FFB401"/>
</linearGradient>
<linearGradient id="paint1_linear_2448_320" x1="34.7992" y1="23.9441" x2="13.1992" y2="23.9441" gradientUnits="userSpaceOnUse">
<stop stop-color="#FFB401"/>
<stop offset="1" stop-color="#DAD31B"/>
</linearGradient>
</defs>
</svg>
