<svg width="48" height="48" viewBox="0 0 48 48" fill="none" xmlns="http://www.w3.org/2000/svg">
<rect x="0.5" y="0.5" width="47" height="47" rx="7.5" stroke="url(#paint0_linear_2448_317)" stroke-opacity="0.7"/>
<path fill-rule="evenodd" clip-rule="evenodd" d="M21.2225 20.7265H25.2337V22.7245C25.8115 21.5754 27.2932 20.5429 29.5191 20.5429C33.7862 20.5429 34.7992 22.8304 34.7992 27.0273V34.8H30.4792V27.9831C30.4792 25.593 29.9014 24.2452 28.4305 24.2452C26.3903 24.2452 25.5425 25.6978 25.5425 27.982V34.8H21.2225V20.7265V20.7265ZM13.8148 34.6164H18.1348V20.5429H13.8148V34.6164V34.6164ZM18.7537 15.954C18.7538 16.3161 18.682 16.6746 18.5424 17.0087C18.4028 17.3428 18.1982 17.6458 17.9404 17.9002C17.4181 18.4192 16.7112 18.7098 15.9748 18.708C15.2398 18.7075 14.5344 18.4177 14.0114 17.9013C13.7546 17.6461 13.5506 17.3427 13.4113 17.0086C13.2719 16.6744 13.1998 16.3161 13.1992 15.954C13.1992 15.2229 13.4908 14.523 14.0125 14.0068C14.5351 13.4896 15.2407 13.1997 15.9759 13.2C16.7125 13.2 17.4188 13.4905 17.9404 14.0068C18.461 14.523 18.7537 15.2229 18.7537 15.954Z" fill="url(#paint1_linear_2448_317)"/>
<defs>
<linearGradient id="paint0_linear_2448_317" x1="5.28" y1="4.51834" x2="32.5742" y2="56.154" gradientUnits="userSpaceOnUse">
<stop stop-color="#FFF72A"/>
<stop offset="1" stop-color="#FFB401"/>
</linearGradient>
<linearGradient id="paint1_linear_2448_317" x1="34.7992" y1="23.9441" x2="13.1992" y2="23.9441" gradientUnits="userSpaceOnUse">
<stop stop-color="#FFB401"/>
<stop offset="1" stop-color="#DAD31B"/>
</linearGradient>
</defs>
</svg>
