<svg width="48" height="48" viewBox="0 0 48 48" fill="none" xmlns="http://www.w3.org/2000/svg">
<rect x="0.5" y="0.5" width="47" height="47" rx="7.5" stroke="url(#paint0_linear_1584_220)" stroke-opacity="0.7"/>
<path fill-rule="evenodd" clip-rule="evenodd" d="M21.2225 20.7265H25.2337V22.7245C25.8115 21.5754 27.2932 20.5429 29.5191 20.5429C33.7862 20.5429 34.7992 22.8303 34.7992 27.0272V34.8H30.4792V27.983C30.4792 25.593 29.9014 24.2451 28.4305 24.2451C26.3903 24.2451 25.5425 25.6977 25.5425 27.9819V34.8H21.2225V20.7265ZM13.8148 34.6164H18.1348V20.5429H13.8148V34.6164ZM18.7537 15.954C18.7538 16.316 18.682 16.6746 18.5424 17.0087C18.4028 17.3428 18.1982 17.6458 17.9404 17.9001C17.4181 18.4192 16.7112 18.7097 15.9748 18.708C15.2398 18.7075 14.5344 18.4176 14.0114 17.9012C13.7546 17.646 13.5506 17.3426 13.4113 17.0085C13.2719 16.6744 13.1998 16.316 13.1992 15.954C13.1992 15.2228 13.4908 14.523 14.0125 14.0067C14.5351 13.4896 15.2407 13.1996 15.9759 13.2C16.7125 13.2 17.4188 13.4905 17.9404 14.0067C18.461 14.523 18.7537 15.2228 18.7537 15.954Z" fill="url(#paint1_linear_1584_220)"/>
<defs>
<linearGradient id="paint0_linear_1584_220" x1="5.28" y1="4.51834" x2="32.5742" y2="56.154" gradientUnits="userSpaceOnUse">
<stop stop-color="#FFF72A"/>
<stop offset="1" stop-color="#FFB401"/>
</linearGradient>
<linearGradient id="paint1_linear_1584_220" x1="34.7992" y1="23.944" x2="13.1992" y2="23.944" gradientUnits="userSpaceOnUse">
<stop stop-color="#FFB401"/>
<stop offset="1" stop-color="#DAD31B"/>
</linearGradient>
</defs>
</svg>
