<svg width="48" height="48" viewBox="0 0 48 48" fill="none" xmlns="http://www.w3.org/2000/svg">
<rect x="0.5" y="0.5" width="47" height="47" rx="7.5" stroke="url(#paint0_linear_1584_226)" stroke-opacity="0.7"/>
<path d="M34.38 14.5261L13.1207 22.3462C11.6698 22.9021 11.6782 23.6741 12.8545 24.0184L18.3126 25.6425L30.9411 18.0421C31.5383 17.6956 32.0838 17.882 31.6354 18.2617L21.4038 27.07H21.4014L21.4038 27.0711L21.0273 32.4377C21.5788 32.4377 21.8223 32.1964 22.1316 31.9116L24.7827 29.4525L30.2972 33.3379C31.314 33.872 32.0443 33.5975 32.2973 32.44L35.9172 16.1663C36.2877 14.7492 35.3501 14.1075 34.38 14.5261Z" fill="url(#paint1_linear_1584_226)"/>
<defs>
<linearGradient id="paint0_linear_1584_226" x1="5.28" y1="4.51834" x2="32.5742" y2="56.154" gradientUnits="userSpaceOnUse">
<stop stop-color="#FFF72A"/>
<stop offset="1" stop-color="#FFB401"/>
</linearGradient>
<linearGradient id="paint1_linear_1584_226" x1="36" y1="23.9502" x2="12" y2="23.9502" gradientUnits="userSpaceOnUse">
<stop stop-color="#FFB401"/>
<stop offset="1" stop-color="#DAD31B"/>
</linearGradient>
</defs>
</svg>
