<svg width="48" height="48" viewBox="0 0 48 48" fill="none" xmlns="http://www.w3.org/2000/svg">
<rect x="0.5" y="0.5" width="47" height="47" rx="7.5" stroke="url(#paint0_linear_2448_313)" stroke-opacity="0.7"/>
<path d="M37.2008 15.757C36.2122 16.1979 35.1636 16.4873 34.0899 16.6156C35.2083 15.9407 36.067 14.8721 36.4714 13.5988C35.4082 14.234 34.245 14.6815 33.0321 14.922C32.044 13.8623 30.6365 13.2 29.0786 13.2C26.0873 13.2 23.6621 15.6415 23.6621 18.6528C23.6621 19.0802 23.7101 19.4964 23.8024 19.8956C19.301 19.6681 15.31 17.4973 12.6386 14.1982C12.1724 15.0035 11.9054 15.9403 11.9054 16.9395C11.9054 18.8314 12.8616 20.5003 14.3149 21.4783C13.4548 21.4511 12.6136 21.2172 11.8615 20.7961C11.8612 20.819 11.8612 20.8418 11.8612 20.8648C11.8612 23.5067 13.7282 25.7107 16.2059 26.2117C15.4083 26.43 14.5717 26.462 13.76 26.3051C14.4491 28.4715 16.4495 30.0479 18.8195 30.092C16.9658 31.5545 14.6303 32.4263 12.0928 32.4263C11.6556 32.4263 11.2245 32.4005 10.8008 32.3501C13.1977 33.8973 16.0447 34.8 19.1034 34.8C29.066 34.8 34.5138 26.4909 34.5138 19.2852C34.5138 19.0487 34.5086 18.8135 34.4981 18.5797C35.5584 17.808 36.4737 16.8521 37.2008 15.757Z" fill="url(#paint1_linear_2448_313)"/>
<defs>
<linearGradient id="paint0_linear_2448_313" x1="5.28" y1="4.51834" x2="32.5742" y2="56.154" gradientUnits="userSpaceOnUse">
<stop stop-color="#FFF72A"/>
<stop offset="1" stop-color="#FFB401"/>
</linearGradient>
<linearGradient id="paint1_linear_2448_313" x1="37.2008" y1="23.9441" x2="10.8008" y2="23.9441" gradientUnits="userSpaceOnUse">
<stop stop-color="#FFB401"/>
<stop offset="1" stop-color="#DAD31B"/>
</linearGradient>
</defs>
</svg>
